<?xml version="1.0" standalone="no"?>
<!DOCTYPE svg PUBLIC "-//W3C//DTD SVG 1.1//EN" "http://www.w3.org/Graphics/SVG/1.1/DTD/svg11.dtd" >
<!--
2013-9-30: Created.
-->
<svg>
<metadata>
Created by iconfont
</metadata>
<defs>

<font id="iconfont" horiz-adv-x="1024" >
  <font-face
    font-family="iconfont"
    font-weight="500"
    font-stretch="normal"
    units-per-em="1024"
    ascent="896"
    descent="-128"
  />
    <missing-glyph />
    
    <glyph glyph-name="qitadenglu_weixindenglu_hover" unicode="&#58928;" d="M823.865055 541.360606c13.736751 0 27.337495-0.952052 40.802231-2.448134-36.722008 167.969186-219.584009 292.824014-428.219418 292.824014C203.127109 831.736486 11.968655 675.395936 11.968655 477.029088c0-114.586266 63.583477-208.63541 169.941293-281.535397l-42.502324-125.398858 148.384115 73.103998c53.110905-10.336565 95.681233-20.945145 148.656129-20.945145 13.396733 0 26.52145 0.680037 39.646168 1.632089a307.784832 307.784832 0 0 0-13.124717 87.384779c0 182.181963 159.26471 330.090052 360.895736 330.090052zM595.644574 654.382787c31.961748 0 53.042901-20.673131 53.042901-52.090849 0-31.281711-21.081153-52.158852-53.042901-52.158853-31.893744 0-63.719485 20.877142-63.719484 52.158853 0 31.417718 31.82574 52.090849 63.719484 52.090849zM298.536326 550.133085c-31.82574 0-63.923496 20.877142-63.923496 52.158853 0 31.417718 32.097755 52.090849 63.923496 52.090849 31.893744 0 53.042901-20.673131 53.042901-52.090849 0-31.145703-21.149157-52.158852-53.042901-52.158853zM1211.146235 216.302829c0 166.813123-169.737283 302.616549-360.419711 302.616549-201.971045 0-361.099748-135.803427-361.099748-302.616549 0-167.017134 159.128702-302.616549 361.099748-302.616549 42.162306 0 84.936645 10.472573 127.234958 20.877141l116.422367-62.563421-31.82574 104.181697c85.20866 62.767433 148.65613 146.071988 148.656129 240.121132z m-477.522115 52.226856c-21.081153 0-42.434321 20.673131-42.434321 41.68628 0 20.809138 21.353168 41.754283 42.434321 41.754283 32.097755 0 53.042901-20.945145 53.042901-41.754283 0-21.081153-20.945145-41.68628-53.042901-41.68628z m233.456767 0c-20.945145 0-42.094302 20.673131-42.094302 41.68628 0 20.809138 21.081153 41.754283 42.162306 41.754283 31.82574 0 53.042901-20.945145 53.042901-41.754283 0-21.081153-21.21716-41.68628-53.042901-41.68628z"  horiz-adv-x="1224" />

    
    <glyph glyph-name="qitadenglu_QQdenglu_hover" unicode="&#58929;" d="M825.291437 547.05554C820.776889 743.107309 684.317153 896 511.440063 896 338.623168 896 202.163431 743.107309 197.58869 547.05554c0-71.630828-31.842612-128.995684-68.199772-205.502223-59.170675-114.729712-40.931901-262.867079-9.089289-262.867079 18.17858 0 54.535739 23.897007 86.37835 66.935698 13.664032-47.794014 40.931901-90.892899 77.349255-129.055878-50.021191-14.326166-81.863803-43.03869-81.863803-71.691021 0-43.03869 72.774513-76.446345 159.213058-71.691022 68.199771 4.755324 122.795704 28.652331 145.549026 57.304662h18.17858c22.753322-28.652331 77.349255-52.549338 145.549026-57.304662 86.438545-4.815518 159.213058 28.652331 159.213058 71.630828 0 28.712525-31.902806 57.42505-81.863803 71.751215 36.35716 33.407655 59.110481 76.446345 77.289061 124.24036 27.328064-42.978497 63.685223-66.875504 86.438545-66.875504 22.753322 4.755324 40.931901 152.892691-18.17858 267.622403-40.931901 76.446345-68.259965 133.811201-68.259965 205.502223z"  horiz-adv-x="1024" />

    
    <glyph glyph-name="zhifubao" unicode="&#58880;" d="M230.404452 319.46351300000003C218.3168 309.73551299999997 205.360974 295.53307800000005 201.598887 277.479513 196.478887 252.81447000000003 200.530365 221.93864299999996 224.327235 197.71881699999994 253.155061 168.35672999999997 296.964452 160.320557 315.886191 158.940383 367.286539 155.22281699999996 422.070539 180.71151299999997 463.364452 209.78420900000003 479.548104 221.20403499999998 507.262887 244.13273000000004 533.753322 279.50525200000004 474.383583 310.15846999999997 400.277148 344.061774 321.050713 340.744904 280.580452 339.053078 251.5968 330.66072999999994 230.404452 319.46351300000003ZM983.262609 183.919304C1009.463652 245.42608700000005 1024 313.03234799999996 1024 384 1024 666.3123479999999 794.334609 896 512 896 229.665391 896 0 666.3123479999999 0 384 0 101.665391 229.665391-128 512-128 682.384696-128 833.491478-44.27687000000003 926.630957 84.12382600000001 838.633739 127.86643500000002 693.604174 199.85808699999995 604.271304 243.42260899999997 561.641739 194.82713 498.621217 146.12034800000004 427.430957 124.928 382.70887 111.63826100000006 342.394435 106.56278299999997 300.232348 115.17773899999997 258.493217 123.72591299999999 227.750957 143.27095699999995 209.830957 162.86052199999995 200.704 172.85565199999996 190.21913 185.56660899999997 182.628174 200.681739 183.340522 198.76730399999997 183.830261 197.63199999999995 183.830261 197.63199999999995 183.830261 197.63199999999995 179.46713 205.15617399999996 176.128 217.132522 174.413913 222.920348 173.256348 228.95304299999998 172.78887 235.27513 172.432696 239.41565200000002 172.343652 243.77878299999998 172.588522 248.32000000000005 172.210087 256.02226099999996 172.521739 264.10295699999995 174.258087 272.384 178.44313 292.61913000000004 187.080348 316.193391 209.430261 338.075826 258.493217 386.114783 324.207304 388.697043 358.244174 388.496696 408.665043 388.207304 496.283826 366.146783 570.056348 340.057043 590.491826 383.577043 603.603478 430.124522 612.062609 461.156174L305.307826 461.156174 305.307826 494.32487 462.825739 494.32487 462.825739 560.662261 272.13913 560.662261 272.13913 593.830957 462.825739 593.830957 462.825739 660.146087C462.825739 669.250783 464.62887 676.7304349999999 479.410087 676.7304349999999L554.028522 676.7304349999999 554.028522 593.830957 761.321739 593.830957 761.321739 560.662261 554.028522 560.662261 554.028522 494.32487 719.849739 494.32487C719.849739 494.32487 703.198609 401.497043 651.130435 310.00487 766.686609 268.73321699999997 929.257739 205.15617399999996 983.262609 183.919304Z"  horiz-adv-x="1024" />

    
    <glyph glyph-name="lianxiren" unicode="&#58902;" d="M620.744 357.12c82.737 40.525 140.309 124.786 140.309 222.937 0 137.368-111.715 249.081-249.027 249.081-137.368 0-249.08-111.713-249.08-249.08 0-98.152 57.571-182.413 140.363-222.937-167.979-47.55-291.512-201.858-291.512-384.816 0-18.464 15.032-33.443 33.497-33.443 18.464 0 33.498 14.979 33.498 33.443 0 183.775 149.46 333.344 333.234 333.344 183.776 0 333.235-149.569 333.235-333.344 0-18.464 14.978-33.443 33.443-33.443 18.52 0 33.497 14.979 33.497 33.443 0 182.958-123.532 337.266-291.457 384.816zM329.887 580.058c0 100.439 81.702 182.195 182.14 182.195 100.384 0 182.086-81.756 182.086-182.195 0-100.384-81.703-182.086-182.086-182.086-100.44 0-182.14 81.702-182.14 182.086z"  horiz-adv-x="1024" />

    
    <glyph glyph-name="suo" unicode="&#58898;" d="M847.36 490.88h-64V576a256 256 0 0 1-512 0v-85.12h-64V576a320 320 0 0 0 640 0zM845.44-128H211.2a96 96 0 0 0-95.36 96V426.88a96 96 0 0 0 95.36 96h634.24a96 96 0 0 0 95.36-96v-458.88a96 96 0 0 0-95.36-96zM211.2 458.88a31.36 31.36 0 0 1-31.36-32v-458.88a31.36 31.36 0 0 1 31.36-32h634.24a32 32 0 0 1 32 32V426.88a32 32 0 0 1-32 32zM528.64 102.39999999999998a120.96 120.96 0 1 0 120.32 120.96 120.96 120.96 0 0 0-120.32-120.96z m0 177.92a56.96 56.96 0 1 1 56.96-56.96 56.96 56.96 0 0 1-56.96 56.96zM528.64 5.759999999999991a32 32 0 0 0-32 32V134.39999999999998a32 32 0 1 0 64 0v-96.64a32 32 0 0 0-32-32z"  horiz-adv-x="1024" />

    
    <glyph glyph-name="shijian" unicode="&#58881;" d="M894.28 544.38a416.15 416.15 0 1 1 32.62-161.51 413.34 413.34 0 0 1-32.62 161.51zM512 28.13c-195.61 0-354.74 159.13-354.74 354.74S316.39 737.61 512 737.61s354.74-159.13 354.74-354.74S707.61 28.13 512 28.13zM686.19 252.55L541.4 381.89V633.72a30.08 30.08 0 0 1-60.16 0v-265.29a30.12 30.12 0 0 1 10-22.44l154.87-138.31a30.08 30.08 0 0 1 40.08 44.87z"  horiz-adv-x="1024" />

    
    <glyph glyph-name="shangpinguanli" unicode="&#58882;" d="M873.39 111.26l-65 589A30 30 0 0 1 778.57 727H248.5a30 30 0 0 1-29.81-26.66l-66-589A30 30 0 0 1 182.5 78h661.07a30 30 0 0 1 29.82 33.29zM216.05 138l59.28 529H751.7l58.38-529zM661.67 521.2a30 30 0 0 1-30-30 120.34 120.34 0 1 0-240.67 0 30 30 0 1 1-60 0c0-99.44 80.9-180.34 180.33-180.34s180.34 80.9 180.34 180.34a30 30 0 0 1-30 30z"  horiz-adv-x="1024" />

    
    <glyph glyph-name="shoufuzhongxin" unicode="&#58884;" d="M720.65566 381.506592H589.5389v46.219266h98.276755c18.244447 0 32.961634 14.595558 32.961634 32.840005s-14.717187 32.840005-32.961634 32.840005h-93.898088l90.735717 90.857346c12.892743 12.892743 12.892743 33.813042 0 46.584155-12.892743 12.892743-33.691412 12.892743-46.584155 0l-81.491863-81.370234-81.491864 81.491864c-12.892743 12.892743-33.691412 12.892743-46.584155 0-12.892743-12.892743-12.892743-33.813042 0-46.705785l90.614087-90.857346h-93.898087c-18.244447 0-32.961634-14.595558-32.961635-32.840005s14.717187-32.840005 32.961635-32.840005h98.763273v-46.219266H392.255612c-18.244447 0-32.961634-14.595558-32.961634-32.840005s14.717187-32.840005 32.961634-32.840004h131.603279v-94.871125c0-18.244447 14.595558-32.961634 32.840004-32.961635s32.840005 14.717187 32.840005 32.961635v94.871125h131.11676c18.244447 0 32.961634 14.595558 32.961634 32.840004s-14.717187 32.840005-32.961634 32.840005zM1025.581185 354.383181C1013.174961 381.628222 985.808291 398.534743 954.306212 398.534743h-59.476897V775.829909c0 45.002969-35.029338 80.032308-79.789049 80.032307H294.951895c-21.771707 0-42.327117-8.270816-57.530824-23.352892-15.203706-15.082076-23.717781-35.150968-23.717781-56.679415V398.534743h-57.895712c-31.502079 0-58.868749-16.906521-71.274973-44.151562-11.554816-25.298967-7.176149-54.125193 11.189927-75.410381 2.189334-2.554223 4.743556-4.986816 7.784298-7.662668l396.877539-349.320347c14.595558-13.74415 33.934672-21.041929 54.611711-21.041929h0.12163c20.67704 0 40.016154 7.419408 54.611712 21.163559l396.877538 349.320346c3.040741 2.675852 5.473334 4.986816 7.784298 7.541039 18.366077 21.285188 22.744744 50.111415 11.189927 75.410381z m-464.625252-378.146573c-0.364889-0.364889-0.851408-0.729778-1.216296-1.094667-2.189334-2.067704-7.297779-2.067704-9.487113-0.12163-0.364889 0.364889-0.851408 0.729778-1.216296 1.094667l-396.391021 349.077088c0.729778 0.243259 1.702815 0.364889 3.040741 0.364889h94.992755c20.190521 0 36.002376 16.420002 36.002376 36.610523V775.829909c0 4.257038 3.648889 7.05452 8.270816 7.054519h520.088371c5.838223 0 6.81126-4.378667 6.81126-7.054519v-413.662431c0-20.190521 16.298373-36.610524 36.488894-36.610523h95.965792c1.337926 0 2.310963-0.12163 3.040741-0.364889L560.955933-23.763392z"  horiz-adv-x="1061" />

    
    <glyph glyph-name="jiaoyiguanli-01" unicode="&#58885;" d="M921 618c0 46.4-37.6 84-84 84H183c-46.4 0-84-37.6-84-84v-492c0-46.4 37.6-84 84-84h654c46.4 0 84 37.6 84 84V618z m-60-492c0-13.3-10.7-24-24-24H183c-13.3 0-24 10.7-24 24V618c0 13.3 10.7 24 24 24h654c13.3 0 24-10.7 24-24v-492zM746.3 474.1l-89.4 74c-12.8 10.6-31.7 8.8-42.2-4-10.6-12.8-8.8-31.7 4-42.2l25.2-20.9H293c-16.6 0-30-13.4-30-30s13.4-30 30-30h434.2c12.6 0 23.9 7.9 28.2 19.8s0.6 25.2-9.1 33.3zM727 338H293.4c-12.6 0-23.9-7.9-28.2-19.8s-0.7-25.2 9-33.3l89.1-74c5.6-4.7 12.4-6.9 19.2-6.9 8.6 0 17.2 3.7 23.1 10.8 10.6 12.7 8.8 31.7-3.9 42.2l-25.2 21H727c16.6 0 30 13.4 30 30s-13.4 30-30 30z"  horiz-adv-x="1024" />

    
    <glyph glyph-name="shuxingguanli" unicode="&#58888;" d="M907.37 120.8a42.51 42.51 0 0 0-0.32 70l13.29 9.28-5.48 15.19A176.22 176.22 0 0 1 882 271.63l-10.45 12-14.44-6.74a42.48 42.48 0 0 0-60.34 34.59l-1.47 15.93-15.72 3a178.08 178.08 0 0 1-65.18 0l-15.72-3-1.48-15.93a42.47 42.47 0 0 0-60.33-34.59l-14.45 6.74-10.44-12A178.08 178.08 0 0 1 579 215.31l-5.49-15.19 13.3-9.28a42.53 42.53 0 0 0-0.32-70l-13.29-9.07 5.27-15.3a176.15 176.15 0 0 1 32.3-56.47l10.55-12.45 14.76 7.17a41.62 41.62 0 0 0 18.57 4.22 42.62 42.62 0 0 0 42.5-39.66l1.06-16.35 16.14-3a180.34 180.34 0 0 1 65 0l16.14 3 1 16.35A42.64 42.64 0 0 0 839 38.95a43.11 43.11 0 0 0 18.56-4.22l14.77-7.17L882.9 40a175.94 175.94 0 0 1 32.27 56.42l5.28 15.3z m-47.78-42.19a87.58 87.58 0 0 1-20.36 2.39 85 85 0 0 1-81.53-61.59 143 143 0 0 0-21.31 0A85 85 0 0 1 654.86 81a87.58 87.58 0 0 1-20.36-2.42 142.3 142.3 0 0 0-10.65 18.56 84.63 84.63 0 0 1 0.53 116.77 130.74 130.74 0 0 0 11.07 19 86 86 0 0 1 19.41-2.22 84.6 84.6 0 0 1 81 59.92 130 130 0 0 0 22.15 0A85.64 85.64 0 0 1 781.75 253a85.07 85.07 0 0 1 76.68-20 130.74 130.74 0 0 0 11.07-19 84.63 84.63 0 0 1 0.5-116.83 120.46 120.46 0 0 0-10.41-18.56zM747.05 230.18a75.1 75.1 0 1 1 75.1-75.1 75.21 75.21 0 0 1-75.1 75.1z m0-107.9A32.91 32.91 0 1 0 780 155.19a32.94 32.94 0 0 0-32.95-32.91zM516.06 74.27h-274c-13.79 0-25.44 14.25-25.44 31.11V663c0 16.86 11.65 31.1 25.44 31.1h510.08c13.79 0 25.44-14.24 25.44-31.1v-276.53a30 30 0 1 1 60 0V663c0 50.23-38.33 91.1-85.44 91.1H242.08c-47.11 0-85.44-40.87-85.44-91.1v-557.62c0-50.24 38.33-91.11 85.44-91.11h274a30 30 0 0 1 0 60zM322.47 547.78m-32 0a32 32 0 1 1 64 0 32 32 0 1 1-64 0ZM322.47 397.46m-32 0a32 32 0 1 1 64 0 32 32 0 1 1-64 0ZM322.47 251.14m-32 0a32 32 0 1 1 64 0 32 32 0 1 1-64 0ZM677.5 577.78H423.83a30 30 0 1 1 0-60H677.5a30 30 0 0 1 0 60zM677.5 427.46H423.83a30 30 0 0 1 0-60H677.5a30 30 0 1 1 0 60zM522 281.14h-98.17a30 30 0 0 1 0-60H522a30 30 0 0 1 0 60z"  horiz-adv-x="1024" />

    
    <glyph glyph-name="pinpaiguanli" unicode="&#58889;" d="M927.92 454.16l-217 253a30 30 0 0 1-22.77 10.47H335.2a30 30 0 0 1-22.81-10.52l-216-253a30 30 0 0 1 1.25-40.33l392.3-405.95a30 30 0 0 1 21.54-9.15 30 30 0 0 1 21.52 9.11l393.65 406a30 30 0 0 1 1.27 40.37zM511.54 71.81L159.71 435.88 349 657.63h325.36l190.21-221.76zM634.09 469.9L511.91 325.4 388.84 470a30 30 0 1 1-45.68-38.89l146-171.51A30 30 0 0 1 512 249a30.05 30.05 0 0 1 22.86 10.63l145 171.51a30 30 0 0 1-45.82 38.74z"  horiz-adv-x="1024" />

    
    <glyph glyph-name="xiugaimima-01" unicode="&#58890;" d="M940.2 616.1c-4.1 4.7-8 9.7-12.2 15-11.6 14.7-23.6 29.9-40.2 41.8-18.9 13.5-44.2-5.8-55.7-15.8-11.4-9.9-23.1-19.9-25.3-22-16.5-14.3-33-28.7-49.4-43-53-46.2-108.1-93.6-161.9-140.8-0.6-0.5-1-0.9-1.8-1.6s-3.2-2.4-4-4.2c-8.8-17.8-16.8-36.3-25.6-54.1-8.3-16.8-13.3-27.1-28.6-58.1-3.5-7.1-2.4-15.5 2.7-21.5 3.9-4.5 9.5-6.9 15.3-6.8 1.8 0 3.7 0.3 5.5 0.9 18.5 5.9 33 10.8 47 15.4 15.2 5.1 29.6 9.9 48.9 16 0.2 0.1 0.5 0.1 0.7 0.2 2.5 0.9 4.8 1.7 6.9 2.4 5.1 1.8 9.6 3.3 13.1 4.8 3.4 1.5 5.9 2 8.6 4.4C754 409.8 825 471.4 893.5 531.2c0 0 12.9 11.2 23.9 20.8 19.3 16.7 27.8 30.5 29.2 43 0.8 8-1.5 15.4-6.4 21.1zM580.4 348.4c2.7 5.4 24.9 45.5 30.9 54.4 3.4-3.9 22.4-25.7 27.3-31.4-15.4-6.3-57.4-22.8-58.2-23z m92.8 43.2c-12.5 14.3-25 28.7-37.3 43.1 49 43 98.7 86.3 146.9 128.2 11.7 10.1 23.3 20.3 35 30.4l37.4-43.2c-59.9-52.1-121.3-105.6-182-158.5z m212 184c-12.5 14.6-25.3 29.3-38 43.9 9.1 7.7 17.9 14.2 23.4 17.3 9.6-8.2 18-18.8 26.7-29.9 2.7-3.4 5.4-6.9 8.3-10.4-3.8-5.2-11.5-13.1-20.4-20.9zM791 335.6c-16.6 0-30-13.4-30-30v-221.9H223v333c0 3.9 3.1 7 7 7h248c16.6 0 30 13.4 30 30s-13.4 30-30 30H333.6v163c0 40.3 32.8 73 73 73h181c34.6 0 62.7-28.1 62.7-62.7v-20.3c0-16.6 13.4-30 30-30s30 13.4 30 30V657c0 67.7-55 122.7-122.7 122.7h-181c-73.4 0-133-59.7-133-133v-163H230c-36.9 0-67-30.1-67-67v-393h658V305.6c0 16.6-13.4 30-30 30zM492 136.4c16.5 0 30 13.5 30 30v68.7c2.3 1 4.5 2.1 6.6 3.4 9.6 5.5 12.8 14.8 7.3 24.3-5.5 9.6-17.8 12.8-27.3 7.3-9.1-5.3-20.3-2.3-29.4 2.8-14.2 8-18.4 26.4-12.4 40.1 4 9 8.1 12.1 17.3 15.6 10.4 3.9 17.5 8.1 16.6 19.1-0.9 11-10.5 19.2-21.5 18.3-23.1-1.9-34.7-13-46-33.2-9.1-16.2-11.4-35-6.4-52.9s16.7-32.8 32.8-41.9c0.8-0.5 1.7-0.9 2.5-1.4v-70.3c-0.1-16.4 13.4-29.9 29.9-29.9z"  horiz-adv-x="1024" />

    
    <glyph glyph-name="gerenxinxi-01" unicode="&#58891;" d="M622.9 277.9c3 13.7-3.9 27.4-16.1 33.4 29.9 11.4 57.3 29.2 80.7 52.4 43.6 43.6 67.7 101.6 67.7 163.3 0 61.6-24.1 119.7-67.7 163.3-43.6 43.6-101.7 67.7-163.4 67.7s-119.8-24.1-163.4-67.7C317.1 646.7 293 588.7 293 527c0-61.6 24.1-119.7 67.7-163.3 23-23 50-40.5 79.3-51.9-12.9-3.2-25.7-7-38.2-11.7-37.8-13.9-72.7-34.2-103.8-60-62.5-52.1-105.4-124.5-120.7-204-3.1-16.3 7.5-32.1 23.9-35.2 1.9-0.4 3.8-0.5 5.7-0.5 14.1 0 26.8 10 29.5 24.4 26.6 137.4 147.6 237 287.9 237 21.3 0 42.4-2.3 63-6.8 16-3.5 31.9 6.8 35.6 22.9zM353.1 527c0 94.1 76.7 170.8 171 170.8s171-76.6 171-170.8c0-94.2-76.8-170.7-171-170.7-94.3 0-171 76.6-171 170.7zM576.1 192.5c0-13.8 11.2-25 25-25h214.2c13.8 0 25 11.2 25 25s-11.2 25-25 25H601.1c-13.9 0-25-11.2-25-25zM815.2 132H601.1c-13.8 0-25-11.2-25-25s11.2-25 25-25h214.2c13.8 0 25 11.2 25 25s-11.2 25-25.1 25zM720 46.5H601c-13.8 0-25-11.2-25-25s11.2-25 25-25h119c13.8 0 25 11.2 25 25s-11.1 25-25 25z"  horiz-adv-x="1024" />

    
    <glyph glyph-name="xiaoxiliebiao-03" unicode="&#58892;" d="M501.7 447.1c-22 0-40-18-40-40s18-40 40-40 40 18 40 40-18 40-40 40zM333.9 447.1c-22 0-40-18-40-40s18-40 40-40 40 18 40 40-18 40-40 40zM669.8 447.1c-22 0-40-18-40-40s18-40 40-40 40 18 40 40-18 40-40 40zM854.7 545.2c-19.5 41.9-47.4 79.6-82.8 111.8-72.3 65.8-168.3 102-270.2 102s-197.9-36.2-270.2-102c-35.4-32.2-63.3-69.9-82.8-111.8-20.3-43.7-30.6-90-30.6-137.9 0-72 23.3-140.6 67.4-199.3l-23.2-104.3c-2.3-10.2 1-20.9 8.5-28.2 7.6-7.3 18.4-10 28.6-7.3l116.3 31.4c56.7-28.8 120.7-44 186-44 101.9 0 197.9 36.2 270.2 102 35.4 32.2 63.3 69.9 82.8 111.8 20.3 43.7 30.6 90 30.6 137.9 0 47.8-10.3 94.2-30.6 137.9z m-353-429.6c-59.4 0-117.5 14.6-168 42.4-4.6 2.5-9.5 3.7-14.4 3.7-2.8 0-5.5-0.4-8.2-1.1l-79.5-21.4 15.2 68c2.6 9.2 0.8 19.4-5.6 27.2-41.3 50.4-63.1 110.2-63.1 173 0 160.9 145.2 291.7 323.6 291.7s323.6-130.9 323.6-291.7c0-160.9-145.2-291.8-323.6-291.8z"  horiz-adv-x="1024" />

    
    <glyph glyph-name="gonggao-07" unicode="&#58894;" d="M588.2 738.7c-10.3 5-22.6 3.7-31.6-3.3L294.9 531H172c-16.6 0-30-13.4-30-30v-255c0-16.6 13.4-30 30-30h123.7l262-184.3c5.1-3.6 11.2-5.5 17.3-5.5 4.7 0 9.5 1.1 13.8 3.4 9.9 5.2 16.2 15.4 16.2 26.6V711.7c0 11.5-6.5 22-16.8 27zM545 114L322.4 270.5c-5.1 3.6-11.1 5.5-17.3 5.5H202V471h103.2c6.7 0 13.2 2.2 18.5 6.4L545 650.2V114zM686.7 532.3c5.7-5.1 12.9-7.6 20-7.6 8.3 0 16.5 3.4 22.4 10l98.5 110.4c11 12.4 10 31.3-2.4 42.4-12.4 11-31.3 10-42.4-2.4l-98.5-110.4c-11-12.4-10-31.3 2.4-42.4zM729.1 234.1c-11 12.4-30 13.4-42.4 2.4-12.4-11-13.4-30-2.4-42.4l98.5-110.4c5.9-6.6 14.1-10 22.4-10 7.1 0 14.2 2.5 20 7.6 12.4 11 13.4 30 2.4 42.4l-98.5 110.4zM864 414H740c-16.6 0-30-13.4-30-30s13.4-30 30-30h124c16.6 0 30 13.4 30 30s-13.4 30-30 30z"  horiz-adv-x="1024" />

    
    <glyph glyph-name="shouhuodizhi-04" unicode="&#58895;" d="M495.4 597.3c-92.7 0-168.1-75.4-168.1-168.1s75.4-168.1 168.1-168.1 168.1 75.4 168.1 168.1-75.4 168.1-168.1 168.1z m0-276.1c-59.6 0-108.1 48.5-108.1 108.1s48.5 108.1 108.1 108.1c59.6 0 108.1-48.5 108.1-108.1S555 321.2 495.4 321.2zM843.3 576.2c-19 45-46.2 85.3-80.9 120s-75 61.9-120 80.9c-46.6 19.7-96 29.7-147 29.7s-100.4-10-147-29.7c-45-19-85.3-46.2-120-80.9s-61.9-75-80.9-120c-19.7-46.6-29.7-96-29.7-147 0-49.7 13.1-102.7 38.8-157.6 21.3-45.3 51.4-92.3 89.5-139.7C325.7 33 413.6-36 438.7-54.7c16.2-12.1 36.8-18.2 57.3-18.2 20.7 0 41.3 6.2 57.2 18.5 33.5 25.9 119.2 96.2 193.1 188.2C830.3 238.5 873 337.9 873 429.3c0 50.9-10 100.4-29.7 146.9zM516.4-6.9c-10.2-7.9-30.9-7.8-41.7 0.3-48.7 36.5-122.1 102-181.8 176.2-75.3 93.6-115.1 183.4-115.1 259.7 0 175.1 142.5 317.6 317.6 317.6S813 604.4 813 429.3c0-196.4-247.1-397.9-296.6-436.2z"  horiz-adv-x="1024" />

    
    <glyph glyph-name="shijian1" unicode="&#58896;" d="M894.28 544.38a416.15 416.15 0 1 1 32.62-161.51 413.34 413.34 0 0 1-32.62 161.51zM512 28.13c-195.61 0-354.74 159.13-354.74 354.74S316.39 737.61 512 737.61s354.74-159.13 354.74-354.74S707.61 28.13 512 28.13zM686.19 252.55L541.4 381.89V633.72a30.08 30.08 0 0 1-60.16 0v-265.29a30.12 30.12 0 0 1 10-22.44l154.87-138.31a30.08 30.08 0 0 1 40.08 44.87z"  horiz-adv-x="1024" />

    
    <glyph glyph-name="wodezixun-08" unicode="&#58897;" d="M860.4 524.4c-19.5 41.9-47.4 79.6-82.8 111.8-72.3 65.8-168.3 102-270.2 102s-197.9-36.2-270.2-102c-35.4-32.2-63.3-69.9-82.8-111.8-20.3-43.7-30.6-90-30.6-137.9 0-72 23.3-140.6 67.4-199.3L168 82.9c-2.3-10.2 1-20.9 8.5-28.2 7.6-7.3 18.4-10 28.6-7.3l116.3 31.4c56.7-28.8 120.7-44 186-44 101.9 0 197.9 36.2 270.2 102 35.4 32.2 63.3 69.9 82.8 111.8 20.3 43.7 30.6 90 30.6 137.9 0 47.8-10.3 94.2-30.6 137.9z m-353-429.6c-59.4 0-117.5 14.6-168 42.4-4.6 2.5-9.5 3.7-14.4 3.7-2.8 0-5.5-0.4-8.2-1.1l-79.5-21.4 15.2 68c2.6 9.2 0.8 19.4-5.6 27.2-41.3 50.4-63.1 110.2-63.1 173 0 160.9 145.2 291.7 323.6 291.7S831 547.3 831 386.5c0-160.9-145.2-291.7-323.6-291.7zM464.1 283.4h76.7v-67.1h-76.7zM641.9 468.2c-3.3 28.3-15 50.4-34.9 65.6-19.4 14.8-46.8 23.2-81.6 24.8h-0.2c-82.5 2.2-132.8-31-149.5-98.8l-2.1-8.6 69-14.4 2 7.9c9.8 38.7 33 57 71 56.2 42.1-2.5 49.6-23.7 51.6-39.5 1.9-16.1-13.1-33.8-44.8-52.7-35.2-21.4-52.4-48.7-51.1-80.9v-25.5h64v23.1c-1 18.5 11.1 34.3 37.2 48.4 48.8 26.7 72.1 58.3 69.5 94.1l-0.1 0.3z"  horiz-adv-x="1024" />

    
    <glyph glyph-name="shouye" unicode="&#58910;" d="M563.197497 896 460.802503 896 0.012259 409.611773c0 0 0.901006-102.396016 51.200051-102.396016s76.797012 0 76.797012 0 0-232.496449 0-332.816677c0-100.300818 102.397038-102.399081 102.397038-102.399081l204.79714 0c0 0 0 272.419617 0 358.416702 0 25.647017 25.600026 25.600026 25.600026 25.600026l102.394994 0c0 0 25.601047-0.851972 25.601047-25.600026 0-92.198911 0-358.416702 0-358.416702s99.647027 0 204.795097 0c105.147048 0 102.398059 102.399081 102.398059 102.399081L895.992721 332.814761c0 0 27.19875 0 76.799055 0 49.59724 0 51.195965 76.79599 51.195965 76.79599L563.197497 896z"  horiz-adv-x="1024" />

    
    <glyph glyph-name="saomiao" unicode="&#58927;" d="M986.606857 347.494575 37.393143 347.494575c-20.156062 0-36.511565 16.35448-36.511565 36.505425 0 20.155039 16.355503 36.510542 36.511565 36.510542l949.213713 0c20.188808 0 36.511565-16.35448 36.511565-36.510542C1023.117398 363.850078 1006.794641 347.494575 986.606857 347.494575L986.606857 347.494575zM877.080348-90.610438 658.033469-90.610438c-20.188808 0-36.511565 16.320711-36.511565 36.510542 0 20.188808 16.321734 36.511565 36.511565 36.511565l219.047902 0c20.154016 0 36.510542 16.355503 36.510542 36.505425L913.591913 201.457524c0 20.188808 16.316617 36.511565 36.511565 36.511565 20.188808 0 36.505425-16.322757 36.505425-36.511565l0-182.542476C986.606857-41.465135 937.46667-90.610438 877.080348-90.610438L877.080348-90.610438zM329.453942-90.610438 146.911466-90.610438c-60.379159 0-109.519346 49.143257-109.519346 109.525486L37.39212 201.457524c0 20.188808 16.35448 36.511565 36.504402 36.511565 20.155039 0 36.510542-16.322757 36.510542-36.511565l0-182.542476c0-20.147876 16.389272-36.505425 36.504402-36.505425L329.453942-17.590378c20.155039 0 36.512588-16.322757 36.512588-36.511565C365.965507-74.289728 349.608981-90.610438 329.453942-90.610438L329.453942-90.610438zM73.896522 530.038074c-20.149922 0-36.504402 16.353456-36.504402 36.503379L37.39212 749.083929c0 60.386322 49.140187 109.526509 109.519346 109.526509L329.453942 858.610438c20.155039 0 36.512588-16.355503 36.512588-36.510542 0-20.147876-16.355503-36.504402-36.512588-36.504402L146.911466 785.595494c-20.11513 0-36.504402-16.393365-36.504402-36.510542l0-182.542476C110.408087 546.392554 94.051561 530.038074 73.896522 530.038074L73.896522 530.038074zM950.101431 530.038074c-20.192901 0-36.511565 16.353456-36.511565 36.503379L913.589866 749.083929c0 20.117177-16.35448 36.510542-36.510542 36.510542L658.033469 785.594471c-20.188808 0-36.511565 16.356526-36.511565 36.504402 0 20.155039 16.321734 36.510542 36.511565 36.510542l219.047902 0c60.386322 0 109.525486-49.140187 109.525486-109.526509l0-182.542476C986.606857 546.392554 970.289216 530.038074 950.101431 530.038074L950.101431 530.038074z"  horiz-adv-x="1024" />

    
    <glyph glyph-name="genjufenshuxuandaxuen" unicode="&#58931;" d="M512.098-64.592c-60.54 0-119.269 11.859-174.564 35.245-53.402 22.586-101.363 54.923-142.547 96.107-41.184 41.185-73.518 89.145-96.107 142.548-23.387 55.294-35.245 114.025-35.245 174.564 0 60.54 11.859 119.273 35.245 174.564 22.586 53.402 54.923 101.363 96.107 142.547s89.143 73.518 142.547 96.107c55.294 23.387 114.025 35.245 174.564 35.245s119.273-11.859 174.564-35.245c53.402-22.586 101.363-54.923 142.547-96.107s73.518-89.143 96.107-142.547c23.387-55.294 35.245-114.025 35.245-174.564 0-60.54-11.857-119.273-35.245-174.564-22.586-53.402-54.923-101.363-96.107-142.548-41.184-41.184-89.143-73.518-142.547-96.107-55.294-23.387-114.025-35.245-174.564-35.245zM512.098 820.451c-240.73 0-436.577-195.845-436.577-436.58s195.845-436.577 436.577-436.577c240.73 0 436.577 195.845 436.577 436.58s-195.845 436.577-436.577 436.577zM827.161 501.206l-288.678 76.257c-7.188 1.9-16.59 2.946-26.481 2.946-9.883 0-19.285-1.044-26.473-2.946l-288.678-76.253c-11.297-2.98-17.025-8.203-17.028-15.516 0-7.314 5.729-12.538 17.025-15.521l84.030-22.197v-200.698h22.067c36.492-34.82 115.385-57.227 202.009-57.227 86.623 0 165.515 22.407 202.009 57.227h22.071v196.972l85.67 22.63v-163.39h22.381v170.721c5.785 3.647 7.099 8.148 7.099 11.481-0.001 7.314-5.73 12.532-17.026 15.514zM699.022 266.236l-2.798-2.905c-31.767-33.001-106.844-54.321-191.269-54.321s-159.502 21.322-191.267 54.321l-2.797 2.905h-11.053v176.732l185.693-49.051c7.191-1.9 16.594-2.947 26.481-2.947s19.286 1.047 26.474 2.947l171.596 45.326-0.001-173.008h-11.055zM512.007 409.93c-8.294 0-15.978 0.823-21.633 2.317l-190.538 50.329v4.195h-15.877l-71.633 18.922 278.045 73.447c5.657 1.494 13.339 2.317 21.633 2.317s15.977-0.823 21.635-2.317l278.039-73.447-278.044-73.447c-5.651-1.498-13.332-2.319-21.629-2.319z"  horiz-adv-x="1024" />

    
    <glyph glyph-name="yinyue" unicode="&#59008;" d="M179.2-128c-97.745 0-179.2 79.127-179.2 179.2s79.127 179.2 179.2 179.2c39.564 0 76.8-13.964 109.382-37.236l9.309-6.982v574.836c0 34.909 27.927 62.836 60.509 62.836l602.764 69.818c32.582 2.327 62.836-25.6 62.836-60.509v-672.582c0-48.873-18.618-93.091-53.527-125.673-32.582-32.582-79.127-51.2-125.673-51.2-97.745 0-179.2 79.127-179.2 179.2 0 97.745 79.127 179.2 179.2 179.2 39.564 0 79.127-13.964 109.382-37.236l9.309-6.982v311.855l-605.091-65.164v-493.382c-2.327-100.073-81.455-179.2-179.2-179.2zM179.2 167.564c-65.164 0-118.691-53.527-118.691-118.691s53.527-118.691 118.691-118.691 118.691 53.527 118.691 118.691c-2.327 67.491-53.527 118.691-118.691 118.691zM844.8 279.273c-65.164 0-118.691-53.527-118.691-118.691s53.527-118.691 118.691-118.691 118.691 53.527 118.691 118.691-53.527 118.691-118.691 118.691zM356.073 605.091l605.091 65.164v165.236l-598.109-69.818h-6.982v-160.582z"  horiz-adv-x="1024" />

    
    <glyph glyph-name="changpian" unicode="&#58887;" d="M459.838061 393.681455c0 30.657939 24.948364 55.606303 55.606303 55.606303s55.544242-24.948364 55.544242-55.606303-24.886303-55.606303-55.544242-55.606303a55.668364 55.668364 0 0 0-55.606303 55.606303m173.242181 0c0 64.884364-52.751515 117.666909-117.635878 117.666909a117.79103 117.79103 0 0 1-117.666909-117.666909 117.79103 117.79103 0 0 1 117.666909-117.66691 117.76 117.76 0 0 1 117.604848 117.66691M515.413333-39.439515c-238.809212 0-433.089939 194.311758-433.089939 433.089939 0 238.840242 194.249697 433.18303 433.12097 433.183031 238.809212 0 433.12097-194.342788 433.120969-433.183031 0-238.778182-194.311758-433.089939-433.120969-433.089939m0 928.302545C242.346667 888.86303 20.262788 666.748121 20.262788 393.650424c0-273.035636 222.145939-495.181576 495.181576-495.181576s495.181576 222.17697 495.181575 495.181576c0 273.066667-222.17697 495.243636-495.181575 495.243637M806.353455 424.711758a31.030303 31.030303 0 0 1-31.030303-31.030303v-0.031031c0-143.297939-116.580848-259.847758-259.878788-259.847757a31.030303 31.030303 0 0 1 0-62.060606c177.493333 0 321.939394 144.41503 321.939394 321.939394a31.030303 31.030303 0 0 1-31.030303 31.030303M515.413333 653.560242a31.030303 31.030303 0 0 1 0 62.060606c-177.493333 0-321.877333-144.41503-321.908363-321.908363v-0.03103a31.030303 31.030303 0 0 1 62.060606 0c0 143.297939 116.580848 259.878788 259.878788 259.878787z"  horiz-adv-x="1024" />

    
    <glyph glyph-name="qiehuanzuhu" unicode="&#58962;" d="M950.093 408.228l-179.775 173.078c-14.382 13.851-35.955 13.851-50.336 0-14.382-13.842-14.382-34.614 0-48.465l118.647-114.228h-345.168c-21.573 0-35.955-13.842-35.955-34.614s14.382-34.614 35.955-34.614h345.168l-118.639-114.228c-14.382-13.851-14.382-34.623 0-48.465 7.192-6.93 14.382-10.386 25.164-10.386 10.792 0 17.982 3.465 25.173 10.386l179.775 176.535s0 3.465 3.6 3.465c10.782 10.386 10.782 31.149-3.6 41.535zM853.010 141.693c-21.573 0-35.955-13.851-35.955-34.614v-69.237c0-20.763-14.382-34.614-35.955-34.614h-611.235c-21.573 0-35.955 13.851-35.955 34.614v692.317c0 20.763 14.382 34.614 35.955 34.614h611.235c21.573 0 35.955-13.851 35.955-34.614v-69.237c0-20.764 14.382-34.614 35.955-34.614s35.955 13.851 35.955 34.614v69.237c0 58.842-46.736 103.842-107.865 103.842h-611.235c-61.119 0-107.865-45-107.865-103.842v-692.317c0-58.842 46.747-103.842 107.865-103.842h611.235c61.128 0 107.865 45 107.865 103.842v69.237c0 20.764-14.382 34.614-35.955 34.614z"  horiz-adv-x="1024" />

    
    <glyph glyph-name="icon-test" unicode="&#58893;" d="M405.2 149.1C217 149.1 63.9 302.2 63.9 490.4S217 831.8 405.2 831.8s341.3-153.1 341.3-341.3-153.1-341.4-341.3-341.4z m0 614.4c-150.6 0-273.1-122.5-273.1-273.1s122.5-273.1 273.1-273.1 273.1 122.5 273.1 273.1-122.5 273.1-273.1 273.1zM911.3-63.2L576.2 271.9c-0.8 0.8-0.8 2.1 0 2.8l45.4 45.4c0.8 0.8 2.1 0.8 2.8 0L959.5-15c0.8-0.8 0.8-2.1 0-2.8l-45.4-45.4c-0.8-0.8-2-0.8-2.8 0z"  horiz-adv-x="1024" />

    
    <glyph glyph-name="shengyin" unicode="&#58886;" d="M1024 533.333333c0 12.8-8.533333 21.333333-21.333333 21.333334s-21.333333-8.533333-21.333334-21.333334v-298.666666c0-12.8 8.533333-21.333333 21.333334-21.333334s21.333333 8.533333 21.333333 21.333334V533.333333zM512 896c-12.8 0-21.333333-8.533333-21.333333-21.333333v-981.333334c0-12.8 8.533333-21.333333 21.333333-21.333333s21.333333 8.533333 21.333333 21.333333V874.666667c0 12.8-8.533333 21.333333-21.333333 21.333333zM298.666667 704c0 12.8-8.533333 21.333333-21.333334 21.333333s-21.333333-8.533333-21.333333-21.333333v-622.933333c2.133333-10.666667 10.666667-17.066667 21.333333-17.066667s19.2 8.533333 21.333334 17.066667V704zM42.666667 533.333333c0 12.8-8.533333 21.333333-21.333334 21.333334s-21.333333-8.533333-21.333333-21.333334v-298.666666c0-12.8 8.533333-21.333333 21.333333-21.333334s21.333333 8.533333 21.333334 21.333334V533.333333zM768 704c0 12.8-8.533333 21.333333-21.333333 21.333333s-21.333333-8.533333-21.333334-21.333333v-622.933333c2.133333-10.666667 10.666667-17.066667 21.333334-17.066667s19.2 6.4 21.333333 17.066667V704z"  horiz-adv-x="1024" />

    
    <glyph glyph-name="liebiao" unicode="&#58968;" d="M136 640m-40 0a40 40 0 1 1 80 0 40 40 0 1 1-80 0ZM136 384m-40 0a40 40 0 1 1 80 0 40 40 0 1 1-80 0ZM136 128m-40 0a40 40 0 1 1 80 0 40 40 0 1 1-80 0ZM296 599.57h591.17c22.45 0 41.27 18.37 40.82 40.82a40 40 0 0 1-40 39.18H296.83c-22.45 0-41.27-18.37-40.82-40.82A40 40 0 0 1 296 599.57zM888 423.79H296.83c-22.45 0-41.27-18.38-40.82-40.82a40 40 0 0 1 40-39.18h591.16c22.45 0 41.27 18.37 40.82 40.81A40 40 0 0 1 888 423.79zM888 168H296.83c-22.45 0-41.27-18.37-40.82-40.82A40 40 0 0 1 296 88h591.17c22.45 0 41.27 18.37 40.82 40.82A40 40 0 0 1 888 168z"  horiz-adv-x="1024" />

    
    <glyph glyph-name="jiahao" unicode="&#59075;" d="M896 352H128c-17.6 0-32 14.4-32 32s14.4 32 32 32h768c17.6 0 32-14.4 32-32s-14.4-32-32-32zM512-32c-17.6 0-32 14.4-32 32V768c0 17.6 14.4 32 32 32s32-14.4 32-32v-768c0-17.6-14.4-32-32-32z"  horiz-adv-x="1024" />

    
    <glyph glyph-name="xiangji" unicode="&#59301;" d="M805.3 624c29.4 0 54.6-10.4 75.4-31.3 20.9-20.9 31.3-45.9 31.3-75.4V144c0-29.4-10.4-54.6-31.3-75.4-20.9-20.9-45.9-31.3-75.4-31.3H218.7c-29.4 0-54.6 10.4-75.4 31.3S112 114.5 112 144V517.4c0 29.4 10.4 54.6 31.3 75.4s45.9 31.3 75.4 31.3h93.4l21.2 56.6c5.2 13.6 15 25.4 29 35.2 14 9.8 28.4 14.8 43.1 14.8h213.3c14.8 0 29.1-4.9 43.1-14.8 14-9.8 23.7-21.6 29-35.2l21.2-56.6h93.5v-0.1zM380.2 198.9c36.5-36.5 80.5-54.8 131.8-54.8 51.4 0 95.3 18.3 131.8 54.8 36.5 36.5 54.8 80.5 54.8 131.8 0 51.4-18.3 95.3-54.8 131.8-36.5 36.5-80.5 54.8-131.8 54.8s-95.3-18.3-131.8-54.8-54.8-80.5-54.8-131.8c0-51.3 18.2-95.3 54.8-131.8z m47.1 216.6c23.5 23.5 51.7 35.2 84.7 35.2s61.3-11.7 84.7-35.2c23.5-23.5 35.2-51.7 35.2-84.7s-11.7-61.3-35.2-84.7c-23.5-23.5-51.7-35.2-84.7-35.2s-61.3 11.7-84.7 35.2c-23.5 23.5-35.2 51.7-35.2 84.7s11.7 61.2 35.2 84.7z"  horiz-adv-x="1024" />

    
    <glyph glyph-name="xinfeng" unicode="&#58957;" d="M981.917808 717.852055H42.082192c-19.638356 0-35.068493-15.430137-35.068493-35.068493v-598.969863c0-19.638356 15.430137-35.068493 35.068493-35.068494h939.835616c19.638356 0 35.068493 15.430137 35.068493 35.068494V682.783562c0 19.638356-15.430137 35.068493-35.068493 35.068493zM77.150685 618.257534l244.076712-234.257534L77.150685 151.145205V618.257534z m432.043836-398.378082c8.416438 0 16.832877 2.805479 23.846575 9.819178l112.219178 106.608219 224.438356-214.619178H148.690411l224.438356 214.619178 112.219178-106.608219c5.610959-7.013699 14.027397-9.819178 23.846576-9.819178z m186.564383 165.523288l251.090411 239.868493v-479.736986L695.758904 385.40274zM869.69863 647.715068L621.413699 410.652055l-112.219178-106.608219-112.219179 106.608219-248.284931 237.063013H869.69863z"  horiz-adv-x="1024" />

    
    <glyph glyph-name="remen" unicode="&#58900;" d="M512.752-52.368C306.24-52.368 160 92.368 160 291.648c0 105.872 62.72 219.92 65.472 224.592a27.744 27.744 0 0 0 27.424 13.968c11.12-1.472 20-9.584 23.072-20.336 0.208-0.592 17.168-64.704 39.424-100.192 14.928-23.952 30.208-40.752 47.36-52.544-11.616 50.72-20.432 127.12-6.016 205.344 39.36 214.832 206.752 266.384 213.904 268.48a27.488 27.488 0 0 0 34.4-31.904c-0.16-1.472-27.92-152.032 30.672-280.32 5.344-11.68 12.72-25.12 20.704-38.784a364.8 364.8 0 0 0 11.36 57.632c21.6 76.048 77.184 102.064 79.584 103.056a27.344 27.344 0 0 0 28.08-3.456 27.68 27.68 0 0 0 10.064-26.832c-0.304-1.92-8.112-53.728 35.6-127.12 39.456-66.256 50.704-109.232 50.704-191.76-0.192-199.2-150.976-343.84-359.056-343.84zM247.888 421.36a352.272 352.272 0 0 1-24.288-127.136c0-162.272 119.616-280 289.264-280 170.976 0 295.04 117.728 295.04 280.048 0 70.16-8.592 102.544-41.712 158.368-22.112 37.216-33.168 70.672-38.176 97.392a124.656 124.656 0 0 1-13.712-31.808c-16.16-57.12-12-124.16-12-124.912a27.008 27.008 0 0 0-17.696-27.008c-11.184-4.048-23.68-0.032-30.432 9.76-2.096 2.8-49.232 70.4-70.016 116.08-43.104 94.368-42.528 196.544-38.176 255.36-43.696-25.728-110.944-83.312-132.64-200.352-21.008-114.048 19.808-233.248 20.224-234.352a27.152 27.152 0 0 0-4.832-27.408 26.16 26.16 0 0 0-26.16-8.4c-3.248 0.8-83.424 20.448-131.744 97.6a325.696 325.696 0 0 0-22.944 46.768z"  horiz-adv-x="1024" />

    
    <glyph glyph-name="shujia" unicode="&#58912;" d="M585.840286 847.179976h-146.460071a48.820024 48.820024 0 0 1-48.820024-48.820024v-829.940405a48.820024 48.820024 0 0 1 48.820024-48.820024h146.460071a48.820024 48.820024 0 0 1 48.820024 48.820024V798.359952a48.820024 48.820024 0 0 1-48.820024 48.820024z m7.078904-829.940405h-160.617879v24.410012h160.617879zM889.012634 676.309893h-148.168772a48.820024 48.820024 0 0 1-48.820024-48.820024v-659.070322a48.820024 48.820024 0 0 1 48.820024-48.820024h148.168772a48.820024 48.820024 0 0 1 48.820024 48.820024V627.489869a48.820024 48.820024 0 0 1-48.820024 48.820024z m6.346603-659.070322h-160.861978v24.410012h160.861978z m-610.250298 707.890346h-148.901072a48.820024 48.820024 0 0 1-48.820024-48.820024v-707.890346a48.820024 48.820024 0 0 1 48.820024-48.820024h148.168772a48.820024 48.820024 0 0 1 48.820024 48.820024V676.309893a48.820024 48.820024 0 0 1-48.820024 48.820024z m6.346603-707.890346H129.861263v24.410012h160.861979z"  horiz-adv-x="1025" />

    
    <glyph glyph-name="dilanxianxingiconyihuifu_huabanfuben" unicode="&#58883;" d="M770-65c-17.673 0-32 14.327-32 32 0 112.515-61.681 215.444-160.971 268.62-10.717 5.739-18.146 16.35-19.872 28.384-1.729 12.05 2.427 24.339 11.114 32.875 37.12 36.465 57.562 85.195 57.562 137.216 0 106.053-86.28 192.333-192.333 192.333s-192.333-86.281-192.333-192.333c0-52.021 20.441-100.751 57.56-137.213 8.689-8.538 12.845-20.827 11.116-32.877-1.727-12.033-9.155-22.644-19.873-28.384C190.681 182.44399999999996 129 79.51499999999999 129-33c0-17.673-14.327-32-32-32s-32 14.327-32 32c0 125.343 63.24 240.846 167.009 308.594-13.872 17.591-25.335 36.882-34.227 57.64-13.68 31.931-20.615 65.865-20.615 100.86 0 68.469 26.663 132.84 75.078 181.255s112.786 75.078 181.255 75.078 132.84-26.663 181.255-75.078 75.078-112.786 75.078-181.255c0-34.994-6.936-68.928-20.615-100.86-8.892-20.758-20.354-40.049-34.227-57.64C738.761 207.846 802 92.34299999999996 802-33c0-17.673-14.327-32-32-32zM929.698 53.80799999999999c-17.673 0-32 14.327-32 32 0 116.339-63.776 222.766-166.441 277.749-10.773 5.771-18.239 16.436-19.974 28.53-1.736 12.111 2.439 24.463 11.171 33.042 38.453 37.773 59.628 88.252 59.628 142.138 0 109.857-89.376 199.233-199.233 199.233-31.577 0-61.76-7.161-89.711-21.285-15.773-7.971-35.021-1.645-42.992 14.129s-1.646 35.022 14.129 42.993C501.257 821.025 541.151 830.5 582.849 830.5c70.312 0 136.416-27.381 186.134-77.099 49.719-49.718 77.1-115.822 77.1-186.134 0-35.936-7.122-70.784-21.17-103.574-9.273-21.648-21.271-41.744-35.817-60.036C896.308 334.087 961.7 215.02999999999997 961.7 85.80700000000002c-0.002-17.672-14.329-31.999-32.002-31.999z"  horiz-adv-x="1024" />

    
    <glyph glyph-name="relevance" unicode="&#58922;" d="M614.4 418.13333333c-20.48 0-34.13333333-13.65333333-34.13333333-34.13333333 0-75.09333333-61.44-136.53333333-136.53333334-136.53333333H238.93333333c-75.09333333 0-136.53333333 61.44-136.53333333 136.53333333s61.44 136.53333333 136.53333333 136.53333333h102.4c20.48 0 34.13333333 13.65333333 34.13333334 34.13333334S361.81333333 588.8 341.33333333 588.8H238.93333333C122.88 588.8 34.13333333 500.05333333 34.13333333 384s88.74666667-204.8 204.8-204.8h204.8c116.05333333 0 204.8 88.74666667 204.8 204.8 0 20.48-13.65333333 34.13333333-34.13333333 34.13333333zM785.06666667 588.8H580.26666667C464.21333333 588.8 375.46666667 500.05333333 375.46666667 384c0-20.48 13.65333333-34.13333333 34.13333333-34.13333333S443.73333333 363.52 443.73333333 384c0 75.09333333 61.44 136.53333333 136.53333334 136.53333333h204.8c75.09333333 0 136.53333333-61.44 136.53333333-136.53333333s-61.44-136.53333333-136.53333333-136.53333333h-102.4c-20.48 0-34.13333333-13.65333333-34.13333334-34.13333334s13.65333333-34.13333333 34.13333334-34.13333333H785.06666667c116.05333333 0 204.8 88.74666667 204.8 204.8s-88.74666667 204.8-204.8 204.8z"  horiz-adv-x="1024" />

    
    <glyph glyph-name="V" unicode="&#59143;" d="M938.1 341.3c-14.4 14.4-31.9 21.6-52 21.6h-54.9c0 99.6-28.9 182.5-86.9 248.6-57.9 66-134.8 99.2-230.8 99.2s-173.4-33-232.1-99.3c-58.8-66.1-88.2-148.9-88.2-248.6h-57.6c-22 0-39.3-7.3-52.2-21.6-12.9-14.3-19.3-31.5-19.3-51.3v-162.5c0-19.8 6.8-36.5 20.3-50 13.4-13.4 30.2-20.2 50-20.2h94.8v306c0 92 25 168.3 75.1 228.8 50 60.5 118.9 90.7 206.3 90.7s156.6-30.7 207.7-92c51-61.4 76.5-137.2 76.5-227.4v-306h92.1c19.9 0 37 7.1 51.5 21.6 14.4 14.4 21.6 30.6 21.6 48.7h0.1V290c0 19.7-7.4 36.9-22 51.3z"  horiz-adv-x="1024" />

    
    <glyph glyph-name="xiaoxi" unicode="&#59098;" d="M851.2 153.6V441.6c0 166.4-121.6 307.2-281.6 332.8v64C569.6 870.4 544 896 512 896s-57.6-25.6-57.6-57.6v-64c-160-25.6-281.6-166.4-281.6-332.8v-281.6c-32 0-57.6-25.6-57.6-57.6s25.6-57.6 57.6-57.6h684.8c32 0 57.6 25.6 57.6 57.6-6.4 25.6-32 51.2-64 51.2z m-108.8 0H281.6V441.6c0 128 102.4 230.4 230.4 230.4s230.4-102.4 230.4-230.4v-288z m-172.8-166.4H454.4c-32 0-57.6-25.6-57.6-57.6s25.6-57.6 57.6-57.6h115.2c32 0 57.6 25.6 57.6 57.6s-25.6 57.6-57.6 57.6z"  horiz-adv-x="1024" />

    
    <glyph glyph-name="FM_weixuanze" unicode="&#59173;" d="M404.02944 802.46784c27.136-28.0576 28.09856-72.0896 2.62144-100.864l-2.92864-3.13344-84.82816-85.21728h560.5376c37.82656 0 69.36576-29.4912 72.62208-65.9456l0.22528-3.80928 0.04096-526.2336a73.6256 73.6256 0 0 0-69.46816-73.48224l-3.8912-0.1024H145.01888a73.60512 73.60512 0 0 0-73.25696 69.67296l-0.1024 3.8912V518.49216c0.14336 33.93536 6.36928 61.5424 28.61056 83.72224l2.58048 2.4576 196.95616 198.41024a73.8304 73.8304 0 0 0 104.20224-0.6144zM344.7808 760.832l-1.67936-1.37216-196.62848-198.10304-1.26976-1.2288c-7.80288-6.98368-11.42784-20.04992-12.00128-37.35552l-0.08192-4.42368v-501.08416c0-6.00064 4.44416-11.03872 10.0352-11.9808l1.88416-0.16384h733.9008a12.14464 12.14464 0 0 1 11.776 10.19904l0.16384 1.9456V540.2624a11.81696 11.81696 0 0 1-9.6256 11.3664l-1.8432 0.14336H245.02272c-26.37824 0-40.07936 30.78144-23.6544 50.33984l1.88416 2.048 136.92928 137.6256a12.75904 12.75904 0 0 1 0 17.6128 12.20608 12.20608 0 0 1-15.38048 1.41312z m-16.384-345.21088c78.1312 0 141.59872-63.7952 141.59872-142.15168 0-78.70464-63.32416-142.17216-141.59872-142.17216-78.21312 0-141.57824 63.8976-141.57824 142.6432 0 77.96736 63.54944 141.68064 141.57824 141.68064z m461.0048-210.7392c14.21312 0 25.6-11.42784 25.6-25.7024 0-14.29504-11.38688-25.72288-25.6-25.72288h-222.208c-14.21312 0-25.6 11.42784-25.6 25.72288 0 14.27456 11.38688 25.7024 25.6 25.7024h222.208z m-461.0048 149.2992a80.4864 80.4864 0 0 1-80.13824-80.24064c0-44.93312 35.96288-81.2032 80.13824-81.2032 44.29824 0 80.15872 35.92192 80.15872 80.73216 0 44.48256-36.0448 80.6912-80.15872 80.6912z m461.0048 24.9856c14.21312 0 25.6-11.8784 25.6-25.7024 0-14.29504-11.38688-25.72288-25.6-25.72288h-222.208c-14.21312 0-25.6 11.42784-25.6 25.72288s11.38688 25.72288 25.6 25.72288h222.208z"  horiz-adv-x="1024" />

    
    <glyph glyph-name="bianji" unicode="&#58959;" d="M768 0H256a128 128 0 0 0-128 128V640a128 128 0 0 0 128 128h256a42.666667 42.666667 0 0 0 0-85.333333H256a42.666667 42.666667 0 0 1-42.666667-42.666667v-512a42.666667 42.666667 0 0 1 42.666667-42.666667h512a42.666667 42.666667 0 0 1 42.666667 42.666667v256a42.666667 42.666667 0 0 0 85.333333 0v-256a128 128 0 0 0-128-128z m-408.405333 232.917333a64 64 0 0 0 0 90.325334l45.141333 45.184 90.325333-90.325334-45.141333-45.184a64 64 0 0 0-90.325333 0z m165.589333 75.264l-90.325333 90.325334 351.232 351.232a64 64 0 1 0 90.325333-90.325334z"  horiz-adv-x="1024" />

    
    <glyph glyph-name="wode" unicode="&#58901;" d="M617.328783 321.654351h-214.681279A304.082798 304.082798 0 0 1 98.85879 17.865636a142.924797 142.924797 0 0 1 142.924797-142.630713H778.192701a142.924797 142.924797 0 0 1 144.101133 142.630713 304.082798 304.082798 0 0 1-304.965051 303.788715zM510.576312 355.474004a270.263145 270.263145 0 1 1-270.557229 269.969061 270.557229 270.557229 0 0 1 270.557229-269.969061z m-58.816789 218.210287h127.044264a21.174044 21.174044 0 0 0 20.87996-26.761639 94.106862 94.106862 0 0 0-180.567542 0c-3.823091 13.527861 6.763931 26.761639 32.643318 26.761639z"  horiz-adv-x="1024" />

    


  </font>
</defs>
</svg>
